<svg xmlns="http://www.w3.org/2000/svg" xmlns:xlink="http://www.w3.org/1999/xlink" version="1.1" x="0px" y="0px" width="300px" height="101.499px" viewBox="0 0 300 101.499" enable-background="new 0 0 300 101.499" xml:space="preserve"><g><polygon fill="#0D28FF" points="270.4,89.8 274.9,89.8 274.9,101.5 277.7,101.5 277.7,89.8 282.2,89.8 282.2,87.1 270.4,87.1"/><polygon fill="#0D28FF" points="292.1,96.8 288.4,87.1 284.2,87.1 284.2,101.5 287,101.5 287,90.7 290.6,100.1 293.6,100.1 297.1,90.7 297.1,101.5 300,101.5 300,87.1 295.8,87.1"/><path fill="#0D28FF" d="M274.896-0.575c-5.603 0-10.95 3.692-12.715 8.784c-0.335 0.971-11.077 41.568-15.308 57.567L228.388-0.575 h-27.953l-18.49 66.234L164.314-0.575H0v88.656c0 7.4 6 13.4 13.4 13.417h13.415V63.736h35.192V39.164H26.833V23.926 h47.846v77.572h26.832V63.736h35.192V39.164h-35.192V23.926h42.17l22.606 77.572h30.533l17.414-59.565l17.414 59.565h30.533 L291.926-0.575H274.896z"/></g></svg>